<svg xmlns="http://www.w3.org/2000/svg" version="1.1" xmlns:xlink="http://www.w3.org/1999/xlink" xmlns:svgjs="http://svgjs.dev/svgjs" width="2000" height="1500" viewBox="0 0 2000 1500"><rect width="2000" height="1500" fill="#ffffff"></rect><g transform="matrix(0.75,0,0,0.75,250,0)"><svg viewBox="0 0 280 280" data-background-color="#ffffff" preserveAspectRatio="xMidYMid meet" height="2000" width="2000" xmlns="http://www.w3.org/2000/svg" xmlns:xlink="http://www.w3.org/1999/xlink"><g id="tight-bounds" transform="matrix(1,0,0,1,0,0)"><svg viewBox="0 0 280 280" height="280" width="280"><g><svg viewBox="0 0 280 280" height="280" width="280"><g><svg viewBox="0 0 280 280" height="280" width="280"><g id="textblocktransform"><svg viewBox="0 0 280 280" height="280" width="280" id="textblock"><g><svg viewBox="0 0 280 280" height="280" width="280"><g transform="matrix(1,0,0,1,74.21691186927173,74.00336708925556)"><svg viewBox="0 0 131.56617626145655 131.99326582148888" height="131.99326582148888" width="131.56617626145655"><g id="icon-0"><svg xmlns="http://www.w3.org/2000/svg" xmlns:xlink="http://www.w3.org/1999/xlink" version="1.1" x="0" y="0" viewBox="5.131642632163555 4.985992399999997 89.73671216783646 90.0280151" enable-background="new 0 0 100 100" xml:space="preserve" height="131.99326582148888" width="131.56617626145655" class="icon-xg-0" data-fill-palette-color="accent" id="xg-0"><path d="M93.868 53.507H64.809c-0.553 0-1 0.447-1 1v32.102c0 0.553 0.447 1 1 1h29.059c0.553 0 1-0.447 1-1V54.507C94.868 53.954 94.421 53.507 93.868 53.507zM92.868 85.609H65.809V55.507h27.059V85.609zM68.412 59.213c0-1.105 0.895-2 2-2 1.105 0 2 0.895 2 2s-0.895 2-2 2C69.307 61.213 68.412 60.318 68.412 59.213zM86.412 59.213c0-1.105 0.895-2 2-2s2 0.895 2 2-0.895 2-2 2S86.412 60.318 86.412 59.213zM89.94 64.902c0 0.553-0.447 1-1 1H69.737c-0.553 0-1-0.447-1-1s0.447-1 1-1h19.203C89.492 63.902 89.94 64.349 89.94 64.902zM89.94 80.861c0 0.553-0.447 1-1 1H69.737c-0.553 0-1-0.447-1-1s0.447-1 1-1h19.203C89.492 79.861 89.94 80.308 89.94 80.861zM89.94 70.221c0 0.553-0.447 1-1 1H69.737c-0.553 0-1-0.447-1-1s0.447-1 1-1h19.203C89.492 69.221 89.94 69.668 89.94 70.221zM89.94 75.541c0 0.553-0.447 1-1 1H69.737c-0.553 0-1-0.447-1-1s0.447-1 1-1h19.203C89.492 74.541 89.94 74.989 89.94 75.541zM53.544 45.045c-0.249-6.516-2.507-9.763-4.666-11.385-0.027 0.01-0.056 0.017-0.083 0.026-0.29 0.094-0.594 0.158-0.916 0.158h-1.075H14.431h-1.075c-0.321 0-0.625-0.064-0.915-0.158-0.028-0.009-0.057-0.016-0.084-0.026-2.159 1.622-4.417 4.869-4.667 11.385C7.279 55.791 5.505 57.861 5.519 57.861c0 0 0 0 0-0.001-0.299 0.232-0.442 0.613-0.368 0.984 0.073 0.372 0.35 0.67 0.715 0.771 0.509 0.141 3.616 0.968 6.474 1.143 0.437 2.744 1.532 5.252 3.128 7.312h-0.099c-3.386 0-6.039 1.803-6.039 4.103v20.841c0 1.103 0.897 2 2 2H15.173l0.138-2 0.843-12.197c0.036-0.523 0.472-0.931 0.998-0.931h1.241v-8.951c1.337 0.997 2.837 1.756 4.449 2.235v6.716h15.551v-6.716c1.611-0.479 3.111-1.238 4.449-2.235v8.951h1.241c0.525 0 0.961 0.407 0.998 0.931l0.843 12.197 0.138 2h3.842c1.103 0 2-0.897 2-2V72.173c0-2.301-2.653-4.104-6.039-4.103h-0.098c1.597-2.06 2.692-4.569 3.128-7.313 2.858-0.175 5.965-1.002 6.474-1.142 0.365-0.101 0.673-0.372 0.746-0.744 0.073-0.372-0.038-0.727-0.337-0.958C55.759 57.894 53.958 55.879 53.544 45.045zM47.117 58.144c0 7.506-5.676 13.612-12.651 13.612h-7.697c-6.976 0-12.652-6.106-12.652-13.612V46.56c3.652-0.069 10.55-2.014 16.004-7.424 0.4-0.398 1.029-0.396 1.431 0.004 4.872 4.852 11.323 7.335 15.565 7.436V58.144zM30.573 63.988c1.79 0 2.966-0.266 3.355-0.447 0.16-0.339 0.505-0.572 0.904-0.572 0.552 0 1 0.447 1 1 0 1.756-3.24 2.019-5.171 2.019-2.019 0-5.258-0.263-5.258-2.019 0-0.553 0.448-1 1-1 0.399 0 0.744 0.234 0.904 0.572C27.696 63.722 28.863 63.988 30.573 63.988zM23.664 53.655c-1.369 0-2.478-1.11-2.478-2.479 0-1.369 1.11-2.478 2.478-2.478s2.478 1.11 2.479 2.478C26.143 52.545 25.033 53.655 23.664 53.655zM35.092 51.176c0-1.369 1.11-2.478 2.478-2.478s2.478 1.11 2.479 2.478c0 1.369-1.11 2.478-2.479 2.479S35.092 52.545 35.092 51.176zM39.564 59.801c0-1.156 1.458-2.093 3.256-2.093s3.256 0.937 3.257 2.093-1.458 2.093-3.257 2.093S39.564 60.957 39.564 59.801zM21.671 59.801c0 1.156-1.458 2.093-3.257 2.093s-3.256-0.937-3.256-2.093 1.458-2.093 3.256-2.093S21.671 58.645 21.671 59.801zM13.449 19.625c-1.042-1.185-1.662-2.632-1.662-4.2 0-3.994 3.979-7.231 8.888-7.231 0.666 0 1.314 0.063 1.938 0.177 0.324 0.06 0.644-0.054 0.872-0.303 1.726-1.884 4.277-3.082 7.132-3.082 2.856 0 5.407 1.198 7.133 3.082 0.228 0.249 0.548 0.363 0.872 0.303 0.624-0.115 1.271-0.178 1.938-0.177 4.909 0 8.888 3.238 8.888 7.231 0 1.568-0.62 3.015-1.663 4.2h0.004v6.334H37.673v-5.294c0-0.552-0.448-1-1-1s-1 0.448-1 1v5.294H25.563v-5.294c0-0.552-0.448-1-1-1s-1 0.448-1 1v5.294H13.446v-6.334H13.449zM47.879 27.959c0.552 0 1 0.448 1 1v1.885c0 0.552-0.448 1-1 1H13.356c-0.552 0-1-0.448-1-1v-1.885c0-0.552 0.448-1 1-1H47.879z" fill="#000000" data-fill-palette-color="accent"></path></svg></g></svg></g><g id="text-0"><path d="M31.208 106.378l-1.194 3.653-26.503-8.659 4.602-14.085 2.786 1.382-3.269 10.005 9.039 2.953 2.83-8.661 2.887 0.944-2.83 8.661z" fill="#000000" data-fill-palette-color="primary"></path><path d="M35.178 45.651c1.567-1.752 3.357-2.912 5.371-3.48 2.013-0.568 4.152-0.5 6.414 0.206 2.268 0.701 4.547 2.076 6.838 4.125v0c2.251 2.014 3.852 4.108 4.801 6.284 0.953 2.171 1.264 4.292 0.933 6.366-0.331 2.073-1.28 3.985-2.847 5.736v0c-1.562 1.747-3.347 2.911-5.355 3.494-1.999 0.582-4.132 0.517-6.4-0.193-2.263-0.706-4.53-2.075-6.801-4.106v0c-2.232-1.996-3.834-4.088-4.807-6.277-0.973-2.188-1.294-4.328-0.965-6.42 0.334-2.097 1.274-4.008 2.818-5.735zM37.531 47.755c-1.62 1.811-2.193 3.832-1.721 6.062 0.467 2.226 2.148 4.633 5.043 7.223v0c2.875 2.571 5.441 3.954 7.7 4.147 2.253 0.189 4.181-0.612 5.782-2.403v0c3.416-3.82 2.329-8.23-3.262-13.231v0c-5.611-5.018-10.125-5.618-13.542-1.798z" fill="#000000" data-fill-palette-color="primary"></path><path d="M86.921 10.007c2.167-0.909 4.282-1.187 6.344-0.836 2.062 0.352 3.964 1.333 5.704 2.943 1.746 1.607 3.214 3.828 4.402 6.662v0c1.168 2.786 1.713 5.364 1.635 7.737-0.072 2.37-0.703 4.419-1.892 6.149-1.19 1.73-2.868 3.049-5.035 3.957v0c-2.161 0.906-4.273 1.191-6.336 0.854-2.055-0.333-3.953-1.308-5.697-2.924-1.74-1.61-3.2-3.82-4.378-6.63v0c-1.158-2.761-1.706-5.339-1.644-7.732 0.062-2.394 0.691-4.465 1.888-6.212 1.203-1.75 2.872-3.072 5.009-3.968zM88.141 12.918c-2.241 0.94-3.627 2.518-4.158 4.734-0.534 2.211-0.051 5.107 1.451 8.689v0c1.491 3.557 3.215 5.908 5.17 7.053 1.953 1.139 4.038 1.244 6.255 0.314v0c4.726-1.982 5.639-6.432 2.738-13.349v0c-2.911-6.942-6.73-9.423-11.456-7.441z" fill="#000000" data-fill-palette-color="primary"></path><path d="M144.568 0.188c4.207 0.136 7.552 1.223 10.037 3.263 2.485 2.033 3.642 5.693 3.472 10.981v0c-0.166 5.149-1.557 8.74-4.174 10.775-2.616 2.034-5.745 2.993-9.388 2.876v0l-6.678-0.216 0.899-27.867zM145.315 3.291l-2.837-0.092-0.701 21.757 3.115 0.1c2.594 0.084 4.723-0.645 6.387-2.185 1.67-1.534 2.573-4.39 2.707-8.571v0c0.095-2.939-0.25-5.212-1.035-6.818-0.785-1.606-1.816-2.692-3.093-3.258-1.277-0.566-2.791-0.877-4.543-0.933z" fill="#000000" data-fill-palette-color="primary"></path><path d="M197.156 11.675l3.544 1.488-10.793 25.708-3.544-1.488z" fill="#000000" data-fill-palette-color="primary"></path><path d="M240.833 41.299c1.332 1.306 2.286 2.609 2.862 3.908 0.571 1.304 0.915 2.784 1.03 4.44v0l-3.146 0.207c-0.168-1.336-0.475-2.497-0.922-3.484-0.451-0.991-1.091-1.893-1.92-2.706v0c-1.038-1.018-2.131-1.615-3.278-1.791-1.143-0.181-2.167 0.19-3.074 1.115v0c-0.567 0.578-0.932 1.178-1.094 1.799-0.153 0.621-0.078 1.402 0.227 2.342 0.305 0.941 0.876 2.179 1.713 3.716v0c0.87 1.616 1.504 3.051 1.901 4.304 0.393 1.259 0.464 2.528 0.214 3.808-0.26 1.279-0.975 2.516-2.147 3.711v0c-1.134 1.157-2.42 1.899-3.858 2.228-1.433 0.324-2.93 0.214-4.488-0.329-1.564-0.548-3.076-1.538-4.536-2.969v0c-2.759-2.705-4.172-5.773-4.238-9.204v0l3.145-0.207c0.165 1.454 0.494 2.753 0.989 3.898 0.5 1.15 1.259 2.224 2.278 3.224v0c1.237 1.213 2.556 1.911 3.957 2.094 1.405 0.188 2.675-0.296 3.809-1.453v0c0.641-0.654 1.05-1.322 1.227-2.004 0.172-0.678 0.124-1.487-0.144-2.428-0.267-0.941-0.808-2.154-1.62-3.639v0c-1.434-2.615-2.2-4.816-2.297-6.603-0.098-1.797 0.581-3.437 2.035-4.921v0c0.985-1.005 2.129-1.641 3.432-1.907 1.307-0.271 2.653-0.16 4.038 0.333 1.39 0.489 2.691 1.328 3.905 2.518z" fill="#000000" data-fill-palette-color="primary"></path><path d="M250.794 110.692l-1.492-3.542 12.049-5.076-4.558-10.819-12.049 5.075-1.492-3.542 25.695-10.823 1.492 3.542-10.737 4.523 4.558 10.819 10.737-4.523 1.492 3.543z" fill="#000000" data-fill-palette-color="primary"></path><path d="M3.681 143.188c0-5.985 4.852-10.837 10.837-10.838 5.985 0 10.837 4.852 10.837 10.838 0 5.985-4.852 10.837-10.837 10.837-5.985 0-10.837-4.852-10.837-10.837z" fill="#000000" data-fill-palette-color="primary"></path><path d="M254.621 143.188c0-5.985 4.852-10.837 10.837-10.838 5.985 0 10.837 4.852 10.837 10.838 0 5.985-4.852 10.837-10.837 10.837-5.985 0-10.837-4.852-10.837-10.837z" fill="#000000" data-fill-palette-color="primary"></path></g><g id="text-1"><path d="M10.814 186.82l-1.22-3.719 26.958-8.839 4.697 14.326-3.114 0.539-3.335-10.172-9.197 3.016 2.888 8.809-2.933 0.962-2.888-8.81z" fill="#000000" data-fill-palette-color="secondary"></path><path d="M61.895 216.976c1.59 1.775 2.56 3.714 2.909 5.816 0.35 2.102 0.043 4.257-0.92 6.465-0.968 2.213-2.619 4.364-4.954 6.455v0c-2.29 2.05-4.585 3.433-6.885 4.147-2.306 0.719-4.489 0.794-6.55 0.225-2.061-0.57-3.886-1.742-5.476-3.518v0c-1.594-1.78-2.571-3.717-2.93-5.81-0.364-2.089-0.062-4.239 0.906-6.452 0.968-2.213 2.607-4.353 4.916-6.421v0c2.27-2.033 4.568-3.418 6.893-4.154 2.325-0.737 4.528-0.82 6.607-0.25 2.079 0.571 3.907 1.736 5.484 3.497zM59.499 219.122c-1.647-1.84-3.624-2.649-5.93-2.429-2.306 0.221-4.933 1.651-7.881 4.291v0c-2.923 2.617-4.606 5.056-5.051 7.316-0.444 2.26 0.148 4.3 1.778 6.121v0c3.476 3.882 8.056 3.279 13.739-1.81v0c5.707-5.111 6.822-9.607 3.345-13.489z" fill="#000000" data-fill-palette-color="secondary"></path><path d="M100.854 243.45c2.199 0.92 3.907 2.254 5.126 4.001 1.219 1.748 1.868 3.826 1.947 6.234 0.077 2.414-0.49 5.066-1.699 7.956v0c-1.186 2.835-2.665 5.07-4.435 6.705-1.773 1.64-3.712 2.646-5.818 3.017-2.105 0.371-4.257 0.097-6.456-0.823v0c-2.205-0.922-3.919-2.251-5.143-3.987-1.227-1.729-1.878-3.801-1.955-6.215-0.077-2.414 0.483-5.051 1.68-7.911v0c1.176-2.811 2.656-5.049 4.439-6.714 1.783-1.665 3.736-2.686 5.859-3.064 2.123-0.378 4.274-0.111 6.455 0.801zM99.612 246.417c-2.278-0.953-4.411-0.835-6.399 0.356-1.988 1.19-3.745 3.611-5.272 7.26v0c-1.514 3.619-1.986 6.545-1.416 8.777 0.57 2.232 1.982 3.819 4.236 4.762v0c4.807 2.011 8.683-0.501 11.627-7.537v0c2.957-7.067 2.032-11.606-2.776-13.618z" fill="#000000" data-fill-palette-color="secondary"></path><path d="M143.505 251.451c4.28-0.14 7.749 0.742 10.409 2.647 2.66 1.905 4.078 5.545 4.254 10.92v0c0.172 5.242-1.004 8.98-3.528 11.214-2.523 2.242-5.636 3.423-9.338 3.545v0l-6.798 0.223-0.931-28.354zM144.473 254.548l-2.886 0.094 0.727 22.144 3.175-0.104c2.634-0.086 4.747-0.966 6.34-2.639 1.592-1.673 2.319-4.636 2.179-8.889v0c-0.098-2.992-0.598-5.277-1.501-6.855-0.902-1.571-2.022-2.604-3.359-3.098-1.331-0.494-2.889-0.712-4.675-0.653z" fill="#000000" data-fill-palette-color="secondary"></path><path d="M183.671 242.687l3.609-1.513 10.964 26.166-3.609 1.512z" fill="#000000" data-fill-palette-color="secondary"></path><path d="M215.693 219.678c1.358-1.327 2.704-2.267 4.04-2.819 1.34-0.557 2.853-0.875 4.538-0.955v0l0.139 3.206c-1.358 0.139-2.545 0.426-3.559 0.86-1.014 0.434-1.944 1.064-2.789 1.89v0c-1.059 1.035-1.694 2.133-1.904 3.295-0.206 1.167 0.15 2.22 1.069 3.16v0c0.575 0.589 1.179 0.969 1.81 1.14 0.627 0.176 1.423 0.117 2.389-0.176 0.961-0.289 2.235-0.843 3.822-1.66v0c1.658-0.849 3.129-1.461 4.415-1.836 1.286-0.375 2.577-0.421 3.875-0.138 1.297 0.292 2.539 1.046 3.727 2.261v0c1.151 1.178 1.877 2.5 2.179 3.969 0.307 1.473 0.165 2.995-0.426 4.565-0.591 1.58-1.632 3.098-3.123 4.555v0c-2.806 2.742-5.958 4.114-9.455 4.115v0l-0.139-3.205c1.476-0.143 2.805-0.453 3.989-0.933 1.179-0.484 2.289-1.234 3.329-2.25v0c1.254-1.225 1.992-2.549 2.215-3.974 0.223-1.425-0.243-2.728-1.399-3.91v0c-0.65-0.665-1.318-1.093-2.006-1.284-0.688-0.191-1.514-0.163-2.479 0.084-0.961 0.252-2.201 0.777-3.722 1.577v0c-2.701 1.405-4.963 2.135-6.786 2.188-1.827 0.059-3.478-0.667-4.953-2.177v0c-0.997-1.021-1.62-2.199-1.867-3.535-0.243-1.331-0.103-2.698 0.42-4.101 0.533-1.402 1.416-2.706 2.651-3.912z" fill="#000000" data-fill-palette-color="secondary"></path><path d="M270.6 184.134l-1.528 3.602-12.247-5.195-4.662 10.992 12.247 5.195-1.528 3.602-26.117-11.077 1.528-3.603 10.918 4.631 4.662-10.992-10.918-4.63 1.528-3.603z" fill="#000000" data-fill-palette-color="secondary"></path></g></svg></g></svg></g></svg></g></svg></g><defs></defs></svg><rect width="280" height="280" fill="none" stroke="none" visibility="hidden"></rect></g></svg></g></svg>